<?xml version="1.0" encoding="utf-8"?>
<!-- Generator: Adobe Illustrator 18.0.0, SVG Export Plug-In . SVG Version: 6.00 Build 0)  -->
<!DOCTYPE svg PUBLIC "-//W3C//DTD SVG 1.0//EN" "http://www.w3.org/TR/2001/REC-SVG-20010904/DTD/svg10.dtd">
<svg version="1.0" id="图层_1" xmlns="http://www.w3.org/2000/svg" xmlns:xlink="http://www.w3.org/1999/xlink" x="0px" y="0px"
	 viewBox="0 0 190 90" enable-background="new 0 0 190 90" xml:space="preserve">
<linearGradient id="SVGID_1_" gradientUnits="userSpaceOnUse" x1="3.2289" y1="44.4248" x2="187" y2="44.4248">
	<stop  offset="0" style="stop-color:#6FC8DE"/>
	<stop  offset="1" style="stop-color:#8360A6"/>
</linearGradient>
<path fill="url(#SVGID_1_)" d="M46.7,10.1v20.2h9v0c0,2.2-1.7,3.9-3.9,3.9h-5.1v45c0,3.6-2.9,6.5-6.5,6.5h0V9.5
	c0-3.5,2.8-6.4,6.4-6.4h18.7v6.9H46.7z M64.6,53.2V3.1h18.8v0c0,3.9-3.1,7-7,7h-5.3v20.6h8.6v0c0,2.1-1.7,3.8-3.8,3.8h-4.8v18.7
	h12.3v0c0,2.3-1.9,4.2-4.2,4.2H68.8C66.5,57.4,64.6,55.5,64.6,53.2z M136.8,78.3V33.1c0-2.7,2.2-4.9,4.9-4.9h13.9v0c0,3.9-3.1,7-7,7
	h-5.3v20.6h8.6v0c0,2.1-1.7,3.8-3.8,3.8h-4.8v18.7h12.3v0c0,2.3-1.9,4.2-4.2,4.2H141C138.7,82.5,136.8,80.6,136.8,78.3z M98.3,57.5
	H87.3V16.8h10.9c7.3,0,10,2.5,10,11.6V46C108.2,55.2,105.6,57.5,98.3,57.5z M101.6,28.2c0-3.5-1.1-5.2-3.8-5.2H94v28.4h3.8
	c2.7,0,3.8-1.7,3.8-5.2V28.2z M125.7,35.5v26.8c0,3.6-2.9,6.5-6.5,6.5h0V35.5h-8.1v0c0-4.6,3.7-7.3,8.3-7.3h5.9
	c4.6,0,8.3,2.7,8.3,7.3v0H125.7z M3.2,44.9v-1.8l22.2-14.4V35l-13.5,8.9L25.4,53v6.4L3.2,44.9z M164.9,59.4V53l13.5-8.9l-13.5-9
	v-6.5L187,43.3V45L164.9,59.4z"/>
</svg>
