<?xml version="1.0" encoding="utf-8"?>
<!-- Generator: Adobe Illustrator 18.0.0, SVG Export Plug-In . SVG Version: 6.00 Build 0)  -->
<!DOCTYPE svg PUBLIC "-//W3C//DTD SVG 1.0//EN" "http://www.w3.org/TR/2001/REC-SVG-20010904/DTD/svg10.dtd">
<svg version="1.0" id="图层_1" xmlns="http://www.w3.org/2000/svg" xmlns:xlink="http://www.w3.org/1999/xlink" x="0px" y="0px"
	 viewBox="0 0 190 90" enable-background="new 0 0 190 90" xml:space="preserve">
<linearGradient id="SVGID_1_" gradientUnits="userSpaceOnUse" x1="0.8897" y1="45" x2="189.1103" y2="45">
	<stop  offset="0" style="stop-color:#48EAFF"/>
	<stop  offset="1" style="stop-color:#B458FF"/>
</linearGradient>
<path fill="url(#SVGID_1_)" d="M45.4,9.8v20.7h9.2v0c0,2.2-1.8,4-4,4h-5.2v46.1c0,3.7-3,6.7-6.7,6.7h0V9.2c0-3.6,2.9-6.5,6.5-6.5
	h19.2v7.1H45.4z M63.7,54V2.7H83v0c0,4-3.2,7.2-7.2,7.2h-5.4V31h8.8v0c0,2.2-1.7,3.9-3.9,3.9h-4.9V54H83v0c0,2.4-1.9,4.3-4.3,4.3H68
	C65.7,58.3,63.7,56.4,63.7,54z M137.7,79.7V33.4c0-2.8,2.3-5.1,5.1-5.1H157v0c0,4-3.2,7.2-7.2,7.2h-5.4v21.1h8.8v0
	c0,2.2-1.7,3.9-3.9,3.9h-4.9v19.1H157v0c0,2.4-1.9,4.3-4.3,4.3H142C139.6,84,137.7,82,137.7,79.7z M98.2,58.4H87V16.7h11.2
	c7.5,0,10.2,2.6,10.2,11.9v18C108.4,56.1,105.7,58.4,98.2,58.4z M101.6,28.3c0-3.6-1.1-5.3-3.9-5.3h-3.9v29.1h3.9
	c2.8,0,3.9-1.7,3.9-5.3V28.3z M126.3,35.9v27.4c0,3.7-3,6.7-6.7,6.7h0V35.9h-8.3v0c0-4.7,3.8-7.5,8.5-7.5h6c4.7,0,8.5,2.8,8.5,7.5v0
	H126.3z M0.9,45.5v-1.8l22.7-14.8v6.5L9.7,44.5l13.8,9.3v6.5L0.9,45.5z M166.5,60.3v-6.5l13.8-9.1l-13.8-9.2v-6.6l22.6,15v1.7
	L166.5,60.3z"/>
</svg>
